# xmcd
#
# Track frame offsets:
#	150
#	32277
#	51527
#	68670
#	81019
#	99504
#	115939
#	144343
#	160084
#	177675
#
# Disc length: 2580 seconds
#
# Revision: 0
# Processed by: cddbd v1.5.1PL2 Copyright (c) Steve Scherf et al.
# Submitted via: dBpowerAMP V4.0
#
DISCID=7f0a120a
DTITLE=Stevie Wonder - Songs In The Key Of Live
DYEAR=1976
DGENRE=R&B
TTITLE0=Love is In Need Of Love Today
TTITLE1=Have A Talk With God
TTITLE2=Village Ghetto Land
TTITLE3=Contusion
TTITLE4=Sir Duke
TTITLE5=I Wish
TTITLE6=Knocks Me Off My Feet
TTITLE7=Pastime paradise
TTITLE8=Summer Soft
TTITLE9=Ordinary pain
EXTD=
EXTT0=
EXTT1=
EXTT2=
EXTT3=
EXTT4=
EXTT5=
EXTT6=
EXTT7=
EXTT8=
EXTT9=
PLAYORDER=
